<?xml version="1.0" encoding="UTF-8"?>
<svg width="800" height="600" viewBox="0 0 800 600" xmlns="http://www.w3.org/2000/svg">
  <!-- Caching System Diagram -->
  
  <!-- Background Grid -->
  <defs>
    <pattern id="smallGrid" width="10" height="10" patternUnits="userSpaceOnUse">
      <path d="M 10 0 L 0 0 0 10" fill="none" stroke="#4361ee" stroke-width="0.5" opacity="0.2"/>
    </pattern>
    <pattern id="grid" width="50" height="50" patternUnits="userSpaceOnUse">
      <rect width="50" height="50" fill="url(#smallGrid)"/>
      <path d="M 50 0 L 0 0 0 50" fill="none" stroke="#4361ee" stroke-width="1" opacity="0.2"/>
    </pattern>
  </defs>
  
  <rect width="100%" height="100%" fill="#f9fafb"/>
  <rect width="100%" height="100%" fill="url(#grid)" opacity="0.6"/>
  
  <!-- Title -->
  <text x="400" y="40" font-family="Inter, sans-serif" font-size="24" text-anchor="middle" fill="#2b2d42" font-weight="bold">Caching Architecture</text>
  
  <!-- Users -->
  <circle cx="100" cy="150" r="30" fill="#eef2ff" stroke="#4361ee" stroke-width="2"/>
  <text x="100" y="155" font-family="Inter, sans-serif" font-size="14" text-anchor="middle" fill="#2b2d42" font-weight="bold">Users</text>
  
  <!-- Web Server -->
  <rect x="250" y="120" width="120" height="60" rx="5" ry="5" fill="#4361ee" stroke="#3a56d4" stroke-width="2"/>
  <text x="310" y="155" font-family="Inter, sans-serif" font-size="14" text-anchor="middle" fill="#ffffff" font-weight="bold">Web Server</text>
  
  <!-- Cache -->
  <rect x="450" y="120" width="120" height="60" rx="5" ry="5" fill="#ffd166" stroke="#e6bc5c" stroke-width="2"/>
  <text x="510" y="155" font-family="Inter, sans-serif" font-size="14" text-anchor="middle" fill="#2b2d42" font-weight="bold">Cache</text>
  
  <!-- Database -->
  <rect x="650" y="120" width="120" height="60" rx="5" ry="5" fill="#06d6a0" stroke="#059669" stroke-width="2"/>
  <text x="710" y="155" font-family="Inter, sans-serif" font-size="14" text-anchor="middle" fill="#ffffff" font-weight="bold">Database</text>
  
  <!-- Connections -->
  <!-- User to Web Server -->
  <line x1="130" y1="150" x2="250" y2="150" stroke="#4361ee" stroke-width="2"/>
  <polygon points="250,150 240,145 240,155" fill="#4361ee"/>
  
  <!-- Web Server to Cache -->
  <line x1="370" y1="150" x2="450" y2="150" stroke="#4361ee" stroke-width="2"/>
  <polygon points="450,150 440,145 440,155" fill="#4361ee"/>
  
  <!-- Cache to Database -->
  <line x1="570" y1="150" x2="650" y2="150" stroke="#4361ee" stroke-width="2"/>
  <polygon points="650,150 640,145 640,155" fill="#4361ee"/>
  
  <!-- Cache Hit Flow -->
  <path d="M 310,180 Q 310,230 400,230 Q 490,230 510,180" fill="none" stroke="#f72585" stroke-width="2" stroke-dasharray="5,5"/>
  <polygon points="510,180 505,190 515,190" fill="#f72585"/>
  <text x="400" y="250" font-family="Inter, sans-serif" font-size="14" text-anchor="middle" fill="#f72585" font-weight="bold">Cache Hit</text>
  
  <!-- Cache Miss Flow -->
  <path d="M 510,180 Q 510,280 610,280 Q 710,280 710,180" fill="none" stroke="#4cc9f0" stroke-width="2" stroke-dasharray="5,5"/>
  <polygon points="710,180 705,190 715,190" fill="#4cc9f0"/>
  <text x="610" y="300" font-family="Inter, sans-serif" font-size="14" text-anchor="middle" fill="#4cc9f0" font-weight="bold">Cache Miss</text>
  
  <!-- Caching Strategies -->
  <rect x="100" y="350" width="600" height="200" rx="5" ry="5" fill="#eef2ff" stroke="#4361ee" stroke-width="2"/>
  <text x="400" y="380" font-family="Inter, sans-serif" font-size="18" text-anchor="middle" fill="#2b2d42" font-weight="bold">Caching Strategies</text>
  
  <!-- Strategy 1 -->
  <rect x="120" y="400" width="160" height="60" rx="3" ry="3" fill="#f72585" stroke="#ef476f" stroke-width="1"/>
  <text x="200" y="425" font-family="Inter, sans-serif" font-size="14" text-anchor="middle" fill="#ffffff" font-weight="bold">Write-Through</text>
  <text x="200" y="445" font-family="Inter, sans-serif" font-size="10" text-anchor="middle" fill="#ffffff">Update cache & DB together</text>
  
  <!-- Strategy 2 -->
  <rect x="320" y="400" width="160" height="60" rx="3" ry="3" fill="#f72585" stroke="#ef476f" stroke-width="1"/>
  <text x="400" y="425" font-family="Inter, sans-serif" font-size="14" text-anchor="middle" fill="#ffffff" font-weight="bold">Write-Back</text>
  <text x="400" y="445" font-family="Inter, sans-serif" font-size="10" text-anchor="middle" fill="#ffffff">Update cache, DB later</text>
  
  <!-- Strategy 3 -->
  <rect x="520" y="400" width="160" height="60" rx="3" ry="3" fill="#f72585" stroke="#ef476f" stroke-width="1"/>
  <text x="600" y="425" font-family="Inter, sans-serif" font-size="14" text-anchor="middle" fill="#ffffff" font-weight="bold">Write-Around</text>
  <text x="600" y="445" font-family="Inter, sans-serif" font-size="10" text-anchor="middle" fill="#ffffff">Write to DB, bypass cache</text>
  
  <!-- Strategy 4 -->
  <rect x="120" y="480" width="160" height="60" rx="3" ry="3" fill="#4cc9f0" stroke="#4361ee" stroke-width="1"/>
  <text x="200" y="505" font-family="Inter, sans-serif" font-size="14" text-anchor="middle" fill="#ffffff" font-weight="bold">LRU</text>
  <text x="200" y="525" font-family="Inter, sans-serif" font-size="10" text-anchor="middle" fill="#ffffff">Least Recently Used</text>
  
  <!-- Strategy 5 -->
  <rect x="320" y="480" width="160" height="60" rx="3" ry="3" fill="#4cc9f0" stroke="#4361ee" stroke-width="1"/>
  <text x="400" y="505" font-family="Inter, sans-serif" font-size="14" text-anchor="middle" fill="#ffffff" font-weight="bold">LFU</text>
  <text x="400" y="525" font-family="Inter, sans-serif" font-size="10" text-anchor="middle" fill="#ffffff">Least Frequently Used</text>
  
  <!-- Strategy 6 -->
  <rect x="520" y="480" width="160" height="60" rx="3" ry="3" fill="#4cc9f0" stroke="#4361ee" stroke-width="1"/>
  <text x="600" y="505" font-family="Inter, sans-serif" font-size="14" text-anchor="middle" fill="#ffffff" font-weight="bold">TTL</text>
  <text x="600" y="525" font-family="Inter, sans-serif" font-size="10" text-anchor="middle" fill="#ffffff">Time To Live</text>
</svg>
