<?xml version="1.0" encoding="UTF-8"?>
<svg width="400px" height="400px" viewBox="0 0 400 400" version="1.1" xmlns="http://www.w3.org/2000/svg" xmlns:xlink="http://www.w3.org/1999/xlink">
    <title>Caching System</title>
    <defs>
        <linearGradient x1="0%" y1="0%" x2="100%" y2="100%" id="linearGradient-1">
            <stop stop-color="#4ECDC4" offset="0%"></stop>
            <stop stop-color="#2D3047" offset="100%"></stop>
        </linearGradient>
    </defs>
    <g id="Caching-System" stroke="none" stroke-width="1" fill="none" fill-rule="evenodd">
        <rect id="Background" fill="#F7F9FC" x="0" y="0" width="400" height="400"></rect>
        
        <!-- User -->
        <g id="User" transform="translate(50, 50)">
            <circle id="User-Head" fill="#2D3047" cx="25" cy="15" r="15"></circle>
            <path d="M0,70 C0,50 50,50 50,70" id="User-Body" stroke="#2D3047" stroke-width="3" fill="none"></path>
            <text id="User-Text" font-family="Arial" font-weight="bold" font-size="12" fill="#2D3047" x="10" y="90">User</text>
        </g>
        
        <!-- Application Server -->
        <g id="App-Server" transform="translate(150, 50)">
            <rect id="Server-Body" fill="url(#linearGradient-1)" x="0" y="0" width="100" height="80" rx="10"></rect>
            <text id="Server-Text" font-family="Arial" font-weight="bold" font-size="12" fill="#FFFFFF" x="15" y="30">Application</text>
            <text id="Server-Text-2" font-family="Arial" font-weight="bold" font-size="12" fill="#FFFFFF" x="25" y="50">Server</text>
            <rect id="Server-Light-1" fill="#FF6B6B" x="80" y="15" width="10" height="10" rx="5"></rect>
            <rect id="Server-Light-2" fill="#4ECDC4" x="80" y="35" width="10" height="10" rx="5"></rect>
            <rect id="Server-Light-3" fill="#FBBF24" x="80" y="55" width="10" height="10" rx="5"></rect>
        </g>
        
        <!-- Cache -->
        <g id="Cache" transform="translate(150, 170)">
            <rect id="Cache-Body" fill="#4ECDC4" x="0" y="0" width="100" height="60" rx="10"></rect>
            <text id="Cache-Text" font-family="Arial" font-weight="bold" font-size="16" fill="#FFFFFF" x="25" y="35">CACHE</text>
            <rect id="Cache-Light" fill="#FFFFFF" x="80" y="15" width="10" height="10" rx="5"></rect>
        </g>
        
        <!-- Database -->
        <g id="Database" transform="translate(150, 270)">
            <path d="M0,15 C0,6.7 22.4,0 50,0 C77.6,0 100,6.7 100,15 L100,65 C100,73.3 77.6,80 50,80 C22.4,80 0,73.3 0,65 L0,15 Z" id="Database-Body" fill="#2D3047"></path>
            <path d="M0,15 C0,23.3 22.4,30 50,30 C77.6,30 100,23.3 100,15 C100,6.7 77.6,0 50,0 C22.4,0 0,6.7 0,15 Z" id="Database-Top" fill="#4A4D6C"></path>
            <text id="Database-Text" font-family="Arial" font-weight="bold" font-size="14" fill="#FFFFFF" x="15" y="55">DATABASE</text>
        </g>
        
        <!-- Connection Lines -->
        <path d="M75,70 L150,70" id="User-Server" stroke="#4ECDC4" stroke-width="2" stroke-linecap="round"></path>
        <path d="M200,130 L200,170" id="Server-Cache" stroke="#4ECDC4" stroke-width="2" stroke-linecap="round"></path>
        <path d="M200,230 L200,270" id="Cache-Database" stroke="#4ECDC4" stroke-width="2" stroke-linecap="round"></path>
        
        <!-- Cache Miss Path -->
        <path d="M250,90 C300,120 320,200 250,250" id="Cache-Miss" stroke="#FF6B6B" stroke-width="2" stroke-linecap="round" stroke-dasharray="5,5"></path>
        
        <!-- Data Flow Animation -->
        <circle id="Request-Packet" fill="#4ECDC4" cx="110" cy="70" r="5">
            <animate attributeName="cx" from="75" to="150" dur="1.5s" repeatCount="indefinite" />
        </circle>
        
        <circle id="Cache-Check-Packet" fill="#4ECDC4" cx="200" cy="150" r="5">
            <animate attributeName="cy" from="130" to="170" dur="1.5s" repeatCount="indefinite" />
        </circle>
        
        <circle id="Cache-Miss-Packet" fill="#FF6B6B" cx="270" cy="150" r="5">
            <animate attributeName="cx" from="250" to="250" dur="4s" repeatCount="indefinite" />
            <animate attributeName="cy" from="90" to="250" dur="4s" repeatCount="indefinite" />
        </circle>
        
        <circle id="Database-Packet" fill="#4ECDC4" cx="200" cy="250" r="5">
            <animate attributeName="cy" from="230" to="270" dur="1.5s" repeatCount="indefinite" />
        </circle>
        
        <circle id="Response-Packet" fill="#4ECDC4" cx="110" cy="70" r="5">
            <animate attributeName="cx" from="150" to="75" dur="1.5s" repeatCount="indefinite" />
        </circle>
        
        <!-- Cache Info Box -->
        <g id="Cache-Info" transform="translate(270, 150)">
            <rect id="Info-Box" fill="#FFFFFF" x="0" y="0" width="120" height="100" rx="5" stroke="#2D3047" stroke-width="2"></rect>
            <text id="Info-Title" font-family="Arial" font-weight="bold" font-size="12" fill="#2D3047" x="25" y="20">Cache Info</text>
            <text id="Hit-Text" font-family="Arial" font-size="10" fill="#4ECDC4" x="10" y="40">Cache Hit</text>
            <text id="Hit-Description" font-family="Arial" font-size="8" fill="#6B7280" x="10" y="55">Data found in cache</text>
            <text id="Miss-Text" font-family="Arial" font-size="10" fill="#FF6B6B" x="10" y="75">Cache Miss</text>
            <text id="Miss-Description" font-family="Arial" font-size="8" fill="#6B7280" x="10" y="90">Data retrieved from DB</text>
        </g>
    </g>
</svg>
