<?xml version="1.0" encoding="UTF-8"?>
<svg width="400px" height="400px" viewBox="0 0 400 400" version="1.1" xmlns="http://www.w3.org/2000/svg" xmlns:xlink="http://www.w3.org/1999/xlink">
    <title>URL Shortener</title>
    <defs>
        <linearGradient x1="0%" y1="0%" x2="100%" y2="100%" id="linearGradient-1">
            <stop stop-color="#4ECDC4" offset="0%"></stop>
            <stop stop-color="#2D3047" offset="100%"></stop>
        </linearGradient>
    </defs>
    <g id="URL-Shortener" stroke="none" stroke-width="1" fill="none" fill-rule="evenodd">
        <rect id="Background" fill="#F7F9FC" x="0" y="0" width="400" height="400"></rect>
        
        <!-- Browser Window -->
        <g id="Browser" transform="translate(50, 50)">
            <rect id="Browser-Window" fill="#FFFFFF" x="0" y="0" width="300" height="200" rx="10" stroke="#2D3047" stroke-width="2"></rect>
            <rect id="Browser-Header" fill="#F3F4F6" x="0" y="0" width="300" height="30" rx="10 10 0 0"></rect>
            <circle id="Browser-Button-1" fill="#FF6B6B" cx="15" cy="15" r="5"></circle>
            <circle id="Browser-Button-2" fill="#FBBF24" cx="35" cy="15" r="5"></circle>
            <circle id="Browser-Button-3" fill="#4ECDC4" cx="55" cy="15" r="5"></circle>
            <rect id="URL-Bar" fill="#FFFFFF" x="80" y="10" width="200" height="20" rx="5" stroke="#D1D5DB" stroke-width="1"></rect>
            <text id="Long-URL" font-family="Arial" font-size="10" fill="#6B7280" x="85" y="23">https://www.example.com/very/long/path</text>
        </g>
        
        <!-- URL Shortener Service -->
        <g id="URL-Shortener-Service" transform="translate(150, 150)">
            <circle id="Service-Background" fill="url(#linearGradient-1)" cx="50" cy="50" r="50"></circle>
            <path d="M50,30 L70,50 L50,70 L30,50 Z" id="Diamond" fill="#FFFFFF"></path>
            <text id="URL" font-family="Arial" font-weight="bold" font-size="12" fill="#FFFFFF" x="35" y="54">URL</text>
        </g>
        
        <!-- Database -->
        <g id="Database" transform="translate(250, 250)">
            <path d="M50,0 C77.6,0 100,11.2 100,25 L100,75 C100,88.8 77.6,100 50,100 C22.4,100 0,88.8 0,75 L0,25 C0,11.2 22.4,0 50,0 Z" id="Database-Body" fill="#2D3047"></path>
            <path d="M50,0 C77.6,0 100,11.2 100,25 C100,38.8 77.6,50 50,50 C22.4,50 0,38.8 0,25 C0,11.2 22.4,0 50,0 Z" id="Database-Top" fill="#4A4D6C"></path>
            <ellipse id="Database-Ring-1" stroke="#4ECDC4" stroke-width="2" cx="50" cy="25" rx="40" ry="15"></ellipse>
            <ellipse id="Database-Ring-2" stroke="#4ECDC4" stroke-width="2" cx="50" cy="50" rx="40" ry="15"></ellipse>
            <ellipse id="Database-Ring-3" stroke="#4ECDC4" stroke-width="2" cx="50" cy="75" rx="40" ry="15"></ellipse>
        </g>
        
        <!-- Output Browser -->
        <g id="Output-Browser" transform="translate(50, 250)">
            <rect id="Output-Window" fill="#FFFFFF" x="0" y="0" width="150" height="100" rx="10" stroke="#2D3047" stroke-width="2"></rect>
            <rect id="Output-Header" fill="#F3F4F6" x="0" y="0" width="150" height="20" rx="10 10 0 0"></rect>
            <circle id="Output-Button-1" fill="#FF6B6B" cx="10" cy="10" r="3"></circle>
            <circle id="Output-Button-2" fill="#FBBF24" cx="20" cy="10" r="3"></circle>
            <circle id="Output-Button-3" fill="#4ECDC4" cx="30" cy="10" r="3"></circle>
            <rect id="Short-URL-Bar" fill="#FFFFFF" x="40" y="5" width="100" height="10" rx="3" stroke="#D1D5DB" stroke-width="1"></rect>
            <text id="Short-URL" font-family="Arial" font-size="8" fill="#6B7280" x="45" y="13">short.url/abc123</text>
            <text id="Redirect-Text" font-family="Arial" font-size="10" fill="#2D3047" x="20" y="60">Redirecting to:</text>
            <text id="Original-URL" font-family="Arial" font-size="8" fill="#4ECDC4" x="20" y="75">www.example.com/...</text>
        </g>
        
        <!-- Connection Arrows -->
        <path d="M200,100 C220,120 230,130 200,150" id="Input-Arrow" stroke="#FF6B6B" stroke-width="2" stroke-linecap="round" marker-end="url(#arrow)"></path>
        <path d="M150,200 C130,220 120,230 125,250" id="Output-Arrow-1" stroke="#4ECDC4" stroke-width="2" stroke-linecap="round" marker-end="url(#arrow)"></path>
        <path d="M200,200 C220,220 230,230 250,250" id="Output-Arrow-2" stroke="#4ECDC4" stroke-width="2" stroke-linecap="round" marker-end="url(#arrow)"></path>
        
        <!-- Arrow Markers -->
        <defs>
            <marker id="arrow" viewBox="0 0 10 10" refX="5" refY="5" markerWidth="6" markerHeight="6" orient="auto-start-reverse">
                <path d="M 0 0 L 10 5 L 0 10 z" fill="#4ECDC4"/>
            </marker>
        </defs>
        
        <!-- Data Flow Animation -->
        <circle id="Data-Packet-1" fill="#FF6B6B" cx="200" cy="120" r="5">
            <animate attributeName="cx" from="200" to="200" dur="3s" repeatCount="indefinite" />
            <animate attributeName="cy" from="100" to="150" dur="3s" repeatCount="indefinite" />
        </circle>
        
        <circle id="Data-Packet-2" fill="#4ECDC4" cx="170" cy="220" r="5">
            <animate attributeName="cx" from="150" to="125" dur="3s" repeatCount="indefinite" />
            <animate attributeName="cy" from="200" to="250" dur="3s" repeatCount="indefinite" />
        </circle>
        
        <circle id="Data-Packet-3" fill="#4ECDC4" cx="220" cy="220" r="5">
            <animate attributeName="cx" from="200" to="250" dur="3s" repeatCount="indefinite" />
            <animate attributeName="cy" from="200" to="250" dur="3s" repeatCount="indefinite" />
        </circle>
    </g>
</svg>
