/* SVG icons for the website */
<svg xmlns="http://www.w3.org/2000/svg" style="display: none;">
  <symbol id="icon-foundation" viewBox="0 0 24 24">
    <path d="M3,11H21V21H3V11M12,4L2,9.3V11H22V9.3L12,4Z" />
  </symbol>
  <symbol id="icon-examples" viewBox="0 0 24 24">
    <path d="M19,3H5C3.9,3 3,3.9 3,5V19C3,20.1 3.9,21 5,21H19C20.1,21 21,20.1 21,19V5C21,3.9 20.1,3 19,3M9,17H7V10H9V17M13,17H11V7H13V17M17,17H15V13H17V17Z" />
  </symbol>
  <symbol id="icon-implementation" viewBox="0 0 24 24">
    <path d="M14.6,16.6L19.2,12L14.6,7.4L16,6L22,12L16,18L14.6,16.6M9.4,16.6L4.8,12L9.4,7.4L8,6L2,12L8,18L9.4,16.6Z" />
  </symbol>
  <symbol id="icon-api" viewBox="0 0 24 24">
    <path d="M7,7H5A2,2 0 0,0 3,9V17H5V13H7V17H9V9A2,2 0 0,0 7,7M7,11H5V9H7M14,7H10V17H12V13H14A2,2 0 0,0 16,11V9A2,2 0 0,0 14,7M14,11H12V9H14M20,9V15H21V17H17V15H18V9H17V7H21V9H20Z" />
  </symbol>
  <symbol id="icon-load-balancer" viewBox="0 0 24 24">
    <path d="M12,3C7.58,3 4,4.79 4,7C4,9.21 7.58,11 12,11C16.42,11 20,9.21 20,7C20,4.79 16.42,3 12,3M4,9V12C4,14.21 7.58,16 12,16C16.42,16 20,14.21 20,12V9C20,11.21 16.42,13 12,13C7.58,13 4,11.21 4,9M4,14V17C4,19.21 7.58,21 12,21C16.42,21 20,19.21 20,17V14C20,16.21 16.42,18 12,18C7.58,18 4,16.21 4,14Z" />
  </symbol>
  <symbol id="icon-cache" viewBox="0 0 24 24">
    <path d="M2,2V4H4V2H2M6,2V4H8V2H6M10,2V4H12V2H10M14,2V4H16V2H14M18,2V4H20V2H18M22,2V4H24V2H22M2,6V8H4V6H2M6,6V8H8V6H6M10,6V8H12V6H10M14,6V8H16V6H14M18,6V8H20V6H18M22,6V8H24V6H22M2,10V12H4V10H2M6,10V12H8V10H6M10,10V12H12V10H10M14,10V12H16V10H14M18,10V12H20V10H18M22,10V12H24V10H22M2,14V16H4V14H2M6,14V16H8V14H6M10,14V16H12V14H10M14,14V16H16V14H14M18,14V16H20V14H18M22,14V16H24V14H22M2,18V20H4V18H2M6,18V20H8V18H6M10,18V20H12V18H10M14,18V20H16V18H14M18,18V20H20V18H18M22,18V20H24V18H22M2,22V24H4V22H2M6,22V24H8V22H6M10,22V24H12V22H10M14,22V24H16V22H14M18,22V24H20V22H18M22,22V24H24V22H22Z" />
  </symbol>
  <symbol id="icon-database" viewBox="0 0 24 24">
    <path d="M12,3C7.58,3 4,4.79 4,7C4,9.21 7.58,11 12,11C16.42,11 20,9.21 20,7C20,4.79 16.42,3 12,3M4,9V12C4,14.21 7.58,16 12,16C16.42,16 20,14.21 20,12V9C20,11.21 16.42,13 12,13C7.58,13 4,11.21 4,9M4,14V17C4,19.21 7.58,21 12,21C16.42,21 20,19.21 20,17V14C20,16.21 16.42,18 12,18C7.58,18 4,16.21 4,14Z" />
  </symbol>
</svg>
